<?xml version="1.0" standalone="no"?>
<!DOCTYPE svg PUBLIC "-//W3C//DTD SVG 20010904//EN"
 "http://www.w3.org/TR/2001/REC-SVG-20010904/DTD/svg10.dtd">
<svg version="1.0" xmlns="http://www.w3.org/2000/svg"
 width="1024.000000pt" height="1024.000000pt" viewBox="0 0 1024.000000 1024.000000"
 preserveAspectRatio="xMidYMid meet">

<g transform="translate(0.000000,1024.000000) scale(0.100000,-0.100000)"
fill="#000000" stroke="none">
<path d="M0 5120 l0 -5120 5120 0 5120 0 0 5120 0 5120 -5120 0 -5120 0 0
-5120z m4559 3684 c13 -9 29 -32 37 -50 47 -113 -106 -201 -187 -108 -38 44
-31 121 14 156 28 23 105 23 136 2z m-691 -123 c76 -77 31 -201 -74 -201 -80
0 -139 80 -114 156 25 74 132 100 188 45z m1303 -10 c64 -65 25 -181 -62 -181
-51 0 -87 18 -105 51 -40 79 5 159 91 159 38 0 52 -5 76 -29z m653 0 c9 -10
25 -41 35 -67 l19 -49 70 -5 c78 -6 95 -15 95 -56 0 -27 -25 -57 -82 -96 l-24
-17 17 -55 c17 -54 15 -86 -6 -113 -17 -21 -51 -15 -101 17 -26 17 -52 30 -58
30 -6 0 -30 -13 -54 -30 -91 -63 -139 -19 -104 95 14 45 15 61 6 66 -48 28
-98 73 -103 94 -11 45 17 64 99 67 l71 3 16 53 c22 77 67 104 104 63z m1051
-147 c24 -10 41 -50 70 -164 33 -130 37 -137 83 -149 202 -56 222 -65 222
-106 0 -26 -35 -55 -135 -110 -86 -47 -98 -54 -263 -149 -73 -42 -134 -76
-136 -76 -5 0 -247 -138 -328 -187 -61 -37 -117 -45 -157 -24 -31 17 -61 70
-61 109 0 62 23 86 162 173 154 95 168 106 168 129 0 9 -25 45 -56 81 -118
135 -134 169 -94 209 18 18 33 20 158 20 l137 0 21 33 c12 17 36 59 54 92 54
98 77 125 110 125 15 0 36 -3 45 -6z m-2668 -236 c17 -18 46 -58 64 -88 61
-103 58 -102 179 -94 98 6 107 5 133 -16 48 -38 37 -75 -50 -178 -29 -35 -53
-71 -53 -81 0 -10 11 -51 25 -91 29 -85 32 -136 8 -162 -23 -25 -65 -23 -168
10 l-89 29 -85 -59 c-98 -68 -139 -76 -168 -32 -13 20 -17 50 -17 128 l-1 101
-48 30 c-119 73 -142 91 -151 117 -21 59 18 88 161 123 40 9 76 22 81 28 5 7
19 52 31 101 26 105 44 144 74 156 35 14 41 12 74 -22z m-1334 -166 c10 -10
24 -40 33 -65 l16 -47 60 0 c32 0 68 -5 78 -10 34 -18 13 -81 -43 -132 -33
-30 -33 -17 0 -140 5 -22 -31 -58 -59 -58 -12 0 -43 14 -69 31 l-48 31 -58
-36 c-70 -43 -87 -44 -110 -10 -16 25 -16 31 -1 88 l16 61 -48 45 c-55 51 -66
77 -46 106 11 15 30 20 87 24 l72 5 12 40 c20 67 33 85 64 85 15 0 35 -8 44
-18z m2333 -63 c25 -12 53 -35 65 -55 39 -63 27 -98 -137 -416 -82 -158 -152
-284 -157 -281 -4 3 -7 -2 -5 -10 3 -14 -56 -77 -73 -77 -5 0 -9 -5 -9 -11 0
-6 -7 -4 -15 5 -8 8 -15 19 -15 25 0 6 -5 11 -11 11 -6 0 -9 7 -5 15 3 8 1 15
-4 15 -6 0 -10 -4 -10 -10 0 -14 -27 -12 -33 3 -4 7 -8 3 -12 -10 -9 -27 -20
-29 -34 -5 -8 13 -10 8 -8 -23 2 -35 -1 -40 -22 -43 -23 -4 -23 -3 -8 13 20
20 22 41 4 48 -10 4 -13 -2 -10 -21 4 -26 4 -26 -11 -8 -12 15 -16 16 -17 5 0
-10 -2 -10 -6 -1 -2 6 -9 9 -15 6 -6 -4 -8 -1 -6 7 3 8 10 13 16 12 6 -2 9 3
6 10 -2 7 29 80 69 162 41 83 120 245 177 360 116 238 138 271 183 284 48 14
57 13 103 -10z m-1730 -333 c3 -11 18 -31 33 -43 l26 -23 -27 -22 c-14 -13
-28 -34 -30 -48 -3 -23 -7 -25 -60 -25 -57 -1 -58 -1 -58 27 0 17 -7 31 -20
38 -11 6 -20 19 -20 30 0 11 9 24 20 30 11 6 20 19 20 29 0 26 6 29 60 29 42
0 50 -4 56 -22z m-1101 -266 c11 -13 20 -41 23 -75 l4 -55 38 0 c54 0 96 -18
109 -46 15 -34 14 -48 -8 -75 -15 -18 -32 -25 -77 -29 l-59 -5 -6 -60 c-8 -66
-31 -95 -78 -95 -51 1 -81 48 -81 127 l0 33 -54 0 c-47 0 -57 4 -75 26 -46 58
-15 108 72 119 l54 7 6 55 c3 31 13 63 23 74 24 26 85 25 109 -1z m5114 5 c98
-23 217 -90 284 -159 107 -109 149 -211 149 -361 0 -99 -18 -169 -74 -279 -97
-191 -99 -324 -10 -586 116 -341 189 -446 359 -515 156 -64 191 -83 246 -139
115 -114 158 -273 122 -446 -4 -19 -11 -36 -15 -38 -5 -2 -7 -9 -4 -17 9 -23
-54 -135 -82 -145 -20 -8 -24 -15 -19 -31 5 -14 3 -20 -7 -18 -24 3 -38 -1
-38 -11 0 -5 7 -7 16 -3 9 3 4 -6 -10 -21 -30 -29 -46 -35 -25 -9 12 15 12 16
-3 10 -20 -7 -34 8 -16 17 7 4 3 4 -9 2 -13 -2 -23 0 -23 5 0 5 -5 9 -11 9
-11 0 19 -60 36 -72 6 -4 2 -8 -7 -8 -10 0 -18 6 -18 14 0 8 -4 17 -9 21 -6 3
-8 -4 -6 -15 2 -11 0 -20 -4 -20 -5 0 -8 -7 -7 -16 0 -9 -6 -19 -14 -21 -13
-4 -13 -3 0 6 13 10 13 12 0 21 -13 9 -13 11 0 20 12 7 8 10 -17 10 -22 0 -33
-6 -38 -19 -4 -13 -12 -17 -27 -13 -14 3 -19 1 -14 -6 4 -7 17 -13 29 -13 17
-1 18 -2 5 -6 -10 -2 -18 -10 -19 -16 0 -7 -4 -2 -9 10 -6 15 -15 21 -25 17
-8 -3 -15 -1 -15 6 0 6 5 8 10 5 6 -3 10 -1 10 5 0 7 -6 10 -14 7 -7 -3 -19 0
-25 6 -10 9 -11 6 -6 -15 6 -23 3 -29 -16 -37 -28 -10 -34 -1 -19 31 10 21 10
21 -3 6 -8 -10 -22 -18 -31 -18 -22 0 -20 -6 8 -36 19 -22 24 -23 29 -10 4 9
13 16 21 16 8 0 16 4 18 9 2 5 12 3 23 -5 14 -11 15 -15 5 -14 -24 3 -58 -11
-64 -26 -7 -19 -26 -18 -26 1 0 17 -11 19 -25 6 -6 -5 -20 -12 -32 -16 -17 -5
-23 -2 -23 9 0 18 -2 19 -24 10 -13 -5 -14 -9 -5 -20 9 -11 8 -14 -5 -14 -9 0
-16 5 -16 10 0 6 -7 10 -16 10 -11 0 -14 -5 -10 -17 6 -16 6 -16 -12 0 -23 21
-32 22 -32 3 0 -7 -6 -18 -13 -24 -10 -8 -16 -3 -27 21 -9 20 -15 26 -18 17
-3 -8 0 -16 7 -18 6 -2 11 -16 10 -30 0 -23 -2 -24 -8 -8 -7 18 -8 18 -14 2
-6 -16 -8 -16 -23 -1 -9 9 -19 13 -22 10 -4 -3 -1 -10 7 -14 10 -7 9 -10 -3
-14 -9 -4 -23 -4 -31 -1 -10 4 -15 0 -15 -11 0 -9 -6 -15 -12 -13 -7 3 -12 19
-12 36 1 18 -3 32 -8 32 -5 0 -6 -9 -3 -20 4 -14 -1 -28 -17 -45 -24 -26 -49
-35 -29 -12 14 18 3 29 -14 14 -6 -6 -10 -21 -8 -32 3 -11 1 -16 -4 -10 -4 6
-17 12 -28 13 -17 4 -17 2 4 -15 17 -14 21 -22 13 -27 -7 -4 -12 -1 -12 8 0 9
-6 16 -13 16 -8 0 -19 10 -26 23 -11 20 -11 20 -5 -8 l6 -30 -21 24 c-14 16
-21 19 -21 10 0 -8 5 -20 12 -27 9 -9 9 -12 0 -12 -7 0 -12 5 -12 11 0 7 -12
10 -29 7 -17 -2 -29 -2 -27 1 2 3 -6 15 -17 26 -11 11 -17 14 -13 8 10 -18 17
-57 8 -49 -4 4 -7 11 -7 14 0 4 -4 12 -8 19 -16 26 -94 232 -412 1098 -56 154
-160 431 -229 615 -70 184 -161 427 -202 540 -72 194 -105 282 -161 428 -13
35 -23 65 -21 67 5 5 634 239 711 264 127 42 265 52 376 26z m-1419 -30 c40
-21 38 -30 -7 -32 -34 -2 -134 -35 -413 -137 -52 -19 -144 -53 -205 -75 -158
-57 -375 -137 -485 -178 -124 -46 -259 -96 -390 -143 -293 -106 -329 -124
-350 -175 -7 -15 -9 -10 -9 21 -1 55 32 103 89 131 25 12 194 77 375 143 182
67 449 166 595 220 570 212 651 239 713 240 33 0 71 -7 87 -15z m-2295 -50
c43 -25 55 -46 55 -100 0 -74 -96 -129 -163 -94 -82 45 -84 150 -4 199 42 26
62 25 112 -5z m1045 -148 c0 -5 7 -7 15 -3 20 7 19 -1 -4 -26 -11 -11 -25 -18
-33 -15 -8 3 -6 6 6 6 17 1 17 3 3 24 -13 20 -13 24 -1 24 8 0 14 -5 14 -10z
m-20 -11 c0 -3 -4 -8 -10 -11 -5 -3 -10 -1 -10 4 0 6 5 11 10 11 6 0 10 -2 10
-4z m-157 -59 c7 3 10 4 7 0 -3 -3 -8 -5 -11 -4 -3 1 -14 -5 -24 -13 -17 -14
-18 -14 -5 10 8 15 15 20 18 12 2 -6 9 -9 15 -5z m1607 -174 c81 -209 535
-1415 620 -1648 126 -347 348 -961 355 -982 5 -18 3 -22 -9 -17 -11 4 -15 2
-11 -8 4 -9 0 -15 -9 -15 -11 0 -12 6 -5 26 9 25 8 25 -6 7 -8 -11 -13 -28
-10 -37 3 -10 -1 -19 -10 -23 -10 -3 -15 1 -15 12 0 9 -5 24 -10 32 -7 11 -8
5 -3 -19 4 -25 3 -32 -6 -27 -7 5 -13 -3 -17 -24 -8 -36 -21 -47 -37 -30 -9
10 -8 12 6 7 11 -4 17 -1 17 8 0 8 -3 14 -7 13 -5 -2 -8 2 -8 7 0 6 6 9 13 9
10 -2 10 1 1 12 -6 7 -7 19 -3 25 4 8 3 9 -4 5 -7 -4 -12 -14 -12 -23 0 -9 -6
-13 -15 -10 -11 5 -13 0 -8 -26 3 -18 10 -38 16 -44 14 -19 -8 -17 -23 2 -6 8
-9 18 -6 23 3 6 -2 16 -11 23 -12 10 -14 10 -9 2 4 -8 1 -13 -8 -13 -9 0 -16
-8 -17 -17 0 -11 -3 -13 -6 -5 -8 20 -23 14 -23 -10 0 -14 -3 -18 -8 -11 -4 6
-25 14 -47 18 -36 7 -38 6 -21 -7 14 -11 16 -17 6 -23 -7 -4 -16 -2 -22 6 -6
10 -7 7 -3 -10 5 -16 4 -21 -4 -17 -6 4 -11 3 -11 -3 0 -5 6 -12 13 -14 7 -3
5 -6 -5 -6 -10 -1 -18 6 -18 15 0 8 -5 12 -10 9 -6 -4 -10 -12 -9 -18 4 -35
-1 -40 -21 -22 -12 10 -18 25 -16 32 7 16 -50 48 -59 33 -4 -6 -10 -8 -15 -5
-4 3 -11 -7 -14 -20 -6 -23 -8 -24 -22 -10 -9 8 -20 13 -25 10 -5 -4 -9 0 -9
7 0 9 -3 9 -10 -2 -8 -13 -10 -12 -10 3 0 13 5 17 19 12 21 -6 33 19 33 73 1
17 5 32 9 32 5 0 6 12 3 27 -6 22 -4 25 10 20 18 -7 22 9 4 16 -10 4 -10 8 1
15 8 6 12 19 8 32 -4 17 -3 19 9 9 11 -9 14 -8 14 5 0 9 -6 16 -12 16 -8 0 -4
7 6 15 14 11 17 18 9 26 -16 16 -4 49 18 49 11 0 19 7 19 18 0 9 -4 13 -8 7
-7 -10 -32 -18 -32 -11 0 3 7 12 17 21 14 14 14 18 2 27 -11 8 -10 9 4 4 10
-3 17 0 17 8 0 8 6 17 13 20 6 3 2 3 -10 0 -13 -3 -23 -1 -23 5 0 6 6 11 14
11 8 0 18 5 22 12 5 8 2 9 -9 5 -10 -3 -17 -2 -17 3 0 6 4 10 9 10 5 0 7 9 4
20 -3 12 0 20 7 20 9 0 11 12 7 40 -3 26 -1 40 6 40 7 0 7 4 -1 12 -15 15 -16
31 0 22 7 -5 9 -2 5 9 -3 8 1 21 9 27 8 7 14 18 14 24 0 7 -4 6 -9 -2 -7 -11
-10 -10 -15 3 -9 25 -7 57 3 50 9 -5 6 38 -3 54 -2 3 0 15 4 26 4 12 0 31 -12
52 -15 25 -17 36 -9 52 14 26 14 34 -1 25 -8 -5 -9 0 -6 14 4 12 2 20 -3 16
-5 -3 -9 2 -9 10 0 9 4 16 9 16 5 0 12 7 15 16 5 14 4 15 -8 5 -8 -7 -20 -10
-27 -6 -8 6 -8 9 1 15 8 5 7 11 -4 23 -19 19 -20 33 -3 41 6 3 3 4 -8 1 -16
-4 -20 1 -21 25 -1 17 3 30 7 30 5 0 9 5 9 11 0 5 -5 7 -11 3 -15 -9 -30 16
-23 39 3 9 1 17 -5 17 -8 0 -39 47 -47 70 -10 35 -31 70 -40 70 -6 0 -24 33
-38 73 -32 86 -120 254 -178 340 -201 299 -508 533 -861 656 -85 30 -277 70
-341 72 -29 1 -27 3 24 26 50 23 365 141 745 280 83 30 166 61 185 68 19 8 40
14 46 14 7 1 31 -47 54 -106z m-3526 -150 c261 -156 405 -253 400 -267 -3 -8
2 -16 11 -20 9 -3 13 -2 10 4 -3 6 -2 10 3 10 16 0 23 -30 12 -51 -6 -11 -8
-24 -5 -29 4 -6 -1 -7 -11 -3 -12 4 -15 3 -10 -5 4 -7 5 -12 1 -12 -3 0 -10
10 -15 23 l-9 22 0 -22 c-1 -12 -9 -27 -18 -32 -14 -8 -15 -10 -3 -11 13 0 13
-1 0 -10 -10 -7 -11 -10 -2 -10 7 0 15 6 18 14 3 8 15 13 27 10 11 -2 135 37
275 86 140 50 262 90 273 90 20 0 38 -45 23 -60 -10 -10 -124 -53 -274 -105
-138 -47 -347 -123 -570 -205 -207 -77 -330 -121 -554 -201 -165 -59 -190 -73
-219 -119 -21 -33 -22 -34 -25 -11 -6 37 27 109 59 132 28 20 192 83 624 239
110 40 211 77 225 82 23 9 20 12 -55 52 -123 65 -467 259 -492 277 -49 34 -59
130 -20 178 25 30 73 51 116 51 39 0 66 -13 205 -97z m-1148 -107 c29 -29 34
-41 34 -81 0 -40 -5 -52 -34 -81 -29 -29 -40 -34 -82 -34 -73 1 -114 43 -114
118 0 37 6 50 34 78 29 29 41 34 81 34 40 0 52 -5 81 -34z m524 -231 c37 -19
50 -43 50 -95 0 -58 -42 -100 -100 -100 -52 0 -76 13 -95 50 -51 98 47 196
145 145z m3160 -30 c122 -23 288 -80 350 -120 30 -19 59 -35 65 -35 6 0 58
-31 116 -68 304 -198 521 -499 598 -829 78 -336 39 -677 -111 -978 -201 -401
-538 -672 -974 -781 -100 -25 -126 -28 -309 -28 -211 -1 -266 7 -445 66 -288
93 -562 299 -725 544 -173 260 -260 557 -258 874 2 357 153 709 417 975 226
228 465 342 831 399 62 9 363 -3 445 -19z m3532 -84 c28 -25 33 -36 33 -75 0
-58 -33 -95 -91 -102 -49 -6 -82 11 -107 54 -17 29 -18 39 -8 72 24 81 111
107 173 51z m-7385 -181 c17 -10 37 -29 44 -41 14 -27 14 -91 -1 -118 -15 -28
-62 -51 -105 -51 -111 0 -149 144 -56 207 42 28 76 29 118 3z m2339 -32 c-332
-412 -460 -839 -401 -1342 8 -71 22 -156 31 -190 9 -33 17 -71 19 -83 3 -33
26 -83 37 -83 6 0 8 -6 5 -13 -3 -7 1 -21 9 -32 8 -10 14 -29 14 -42 0 -13 6
-23 13 -23 8 0 7 -4 -3 -10 -10 -6 -11 -10 -2 -10 6 0 12 -9 12 -20 0 -11 4
-20 10 -20 5 0 7 8 4 18 -5 14 -4 14 4 2 8 -10 8 -18 0 -27 -10 -12 -4 -17 15
-14 5 1 6 -7 3 -17 -3 -10 1 -27 10 -38 8 -10 12 -13 8 -5 -5 10 -3 12 5 7 7
-5 10 -14 7 -21 -2 -7 0 -17 6 -23 8 -8 7 -16 -3 -28 -10 -13 -10 -16 -1 -10
20 12 42 -13 42 -48 0 -24 3 -27 10 -16 9 13 11 12 9 -6 0 -3 8 -12 18 -20 11
-8 13 -13 6 -14 -18 0 -16 -20 2 -20 9 0 12 -6 8 -17 -5 -13 -2 -15 11 -10 16
6 17 3 12 -19 -5 -19 -2 -30 11 -41 11 -9 12 -12 3 -8 -10 4 -9 2 2 -8 10 -8
15 -17 12 -20 -4 -3 1 -13 10 -22 15 -15 16 -15 14 6 -2 12 3 24 10 26 9 4 11
-2 6 -23 -6 -23 -4 -26 9 -21 11 4 21 -1 28 -15 10 -18 9 -20 -5 -15 -10 4
-14 3 -11 -2 3 -5 1 -12 -5 -16 -5 -3 -10 -11 -10 -16 0 -6 5 -7 10 -4 6 3 10
0 10 -8 0 -11 7 -13 22 -9 16 4 20 2 15 -10 -3 -9 0 -21 6 -27 8 -8 6 -11 -8
-12 -11 0 0 -7 23 -16 36 -13 43 -19 40 -37 -5 -27 21 -52 50 -48 24 4 29 -7
11 -25 -7 -7 -7 -13 -1 -17 6 -3 13 -2 17 4 10 16 23 12 21 -7 0 -12 6 -17 17
-17 13 1 16 -3 12 -16 -4 -12 1 -19 16 -23 18 -5 20 -9 10 -20 -9 -12 -6 -14
19 -11 16 2 30 -1 30 -6 0 -6 -4 -10 -10 -10 -5 0 -10 -4 -10 -9 0 -4 14 -7
31 -5 28 4 30 2 18 -13 -13 -15 -11 -16 18 -10 22 4 33 2 37 -8 3 -8 1 -15 -4
-15 -6 0 -10 -5 -10 -10 0 -7 6 -7 19 0 27 14 31 13 24 -6 -4 -12 0 -14 22 -8
21 5 26 4 21 -5 -5 -7 0 -19 11 -29 14 -14 17 -26 12 -62 -6 -44 -6 -44 -7 -8
-2 29 -5 36 -17 32 -12 -5 -13 -10 -4 -20 9 -11 8 -14 -3 -14 -8 0 -20 -10
-26 -22 -9 -20 -10 -19 -5 11 4 24 3 32 -5 27 -6 -4 -9 -13 -5 -21 3 -10 -1
-15 -13 -16 -11 0 -14 -3 -7 -5 9 -4 9 -11 1 -30 -11 -24 -36 -28 -50 -9 -5 6
-8 3 -8 -7 0 -21 17 -32 23 -16 4 8 6 9 6 2 1 -13 -27 -39 -34 -33 -2 3 -6 17
-9 33 -6 33 -16 47 -16 22 0 -13 -5 -16 -21 -11 -18 6 -19 5 -7 -14 7 -12 14
-17 16 -11 4 12 22 3 22 -11 0 -5 -9 -9 -20 -9 -11 0 -20 7 -20 16 0 8 -4 12
-10 9 -5 -3 -10 -1 -10 4 0 6 -5 11 -12 11 -9 0 -9 -3 0 -12 18 -18 14 -31 -8
-25 -10 3 -24 -1 -31 -9 -6 -8 -18 -14 -25 -14 -8 0 -14 -6 -14 -14 0 -8 -4
-17 -8 -20 -5 -3 -7 8 -4 23 2 16 -1 32 -8 36 -9 5 -10 2 -6 -13 5 -14 0 -25
-16 -36 -28 -20 -50 -21 -24 -1 11 8 15 15 9 15 -17 0 -36 -27 -24 -34 6 -4 8
-13 5 -20 -3 -8 -1 -17 5 -21 6 -3 11 -16 11 -28 -1 -29 -68 134 -225 543 -45
118 -143 373 -217 565 -75 193 -163 424 -196 515 -110 299 -352 937 -415 1093
-32 79 -34 88 -19 96 17 9 212 80 607 223 121 44 254 92 295 107 41 15 77 26
79 24 2 -1 -8 -17 -23 -35z m-1038 -710 c67 -172 144 -376 173 -453 55 -150
408 -1078 597 -1570 68 -178 115 -317 117 -342 2 -38 -1 -43 -26 -52 -17 -6
-29 -17 -29 -27 0 -16 -1 -16 -15 2 -15 19 -15 19 -8 0 5 -16 3 -18 -11 -13
-14 6 -16 3 -11 -13 4 -11 2 -20 -4 -20 -6 0 -11 5 -11 10 0 6 -4 10 -10 10
-5 0 -7 -7 -4 -15 4 -8 1 -15 -5 -15 -6 0 -8 -7 -5 -15 4 -9 -1 -18 -10 -21
-22 -8 -35 5 -16 16 8 5 12 12 8 15 -3 3 -13 -2 -22 -11 -10 -10 -26 -14 -41
-11 -16 2 -25 0 -25 -8 0 -7 10 -11 23 -10 12 1 14 0 5 -2 -10 -2 -18 -9 -18
-14 0 -6 -4 -7 -10 -4 -5 3 -10 2 -10 -4 0 -6 -7 -8 -15 -5 -21 8 -19 -13 3
-25 9 -6 11 -11 5 -11 -7 0 -18 9 -25 20 -14 22 -30 27 -23 8 2 -7 -9 -23 -26
-36 -23 -19 -29 -20 -29 -8 0 12 -10 16 -35 16 -37 0 -38 -2 -29 -37 7 -26 44
-32 44 -7 0 10 -6 14 -15 10 -9 -3 -15 0 -15 9 0 18 21 15 37 -5 8 -10 8 -19
1 -27 -15 -19 -45 -16 -57 5 -6 9 -11 12 -11 5 0 -8 -12 -10 -37 -6 -21 3 -35
3 -31 -1 5 -7 27 -13 51 -15 5 -1 6 -5 2 -11 -3 -5 -12 -7 -20 -3 -8 3 -15 0
-15 -6 0 -6 -5 -11 -11 -11 -8 0 -8 5 1 15 16 19 4 19 -50 0 -39 -14 -44 -14
-56 2 -12 16 -13 16 -14 1 0 -9 6 -18 13 -21 6 -2 9 -8 4 -12 -4 -5 -12 -4
-18 2 -6 6 -18 9 -25 6 -16 -6 -19 -43 -3 -43 5 0 7 -4 4 -10 -11 -17 -25 -11
-25 12 0 12 -3 18 -7 14 -5 -4 -8 -13 -8 -19 0 -17 -22 -19 -28 -2 -4 8 -2 15
3 15 6 0 10 9 10 20 0 11 -5 20 -11 20 -6 0 -8 -7 -5 -16 5 -13 2 -15 -14 -11
-11 3 -18 1 -15 -3 3 -5 2 -10 -2 -13 -5 -2 -3 -2 4 -1 20 5 26 -15 9 -31 -18
-19 -30 -19 -23 -2 4 10 -2 13 -19 9 -13 -2 -24 -8 -24 -13 0 -5 -7 -9 -15 -9
-12 0 -14 7 -9 26 7 27 7 27 -13 8 -11 -10 -18 -22 -16 -25 1 -4 -4 -10 -13
-13 -8 -3 -13 -2 -10 2 2 4 -24 8 -59 8 -83 1 -159 38 -241 119 -95 94 -144
211 -144 345 0 80 10 118 66 245 50 118 69 218 59 319 -10 100 -51 257 -95
359 -98 227 -189 318 -400 402 -133 52 -196 90 -260 155 -90 92 -149 238 -150
373 0 74 28 184 68 267 70 143 226 270 374 305 68 16 250 76 493 163 77 28
145 51 151 51 6 1 66 -140 132 -311z m5762 -708 c0 -5 -5 -10 -11 -10 -5 0 -7
5 -4 10 3 6 8 10 11 10 2 0 4 -4 4 -10z m-405 -220 c3 -5 -1 -10 -10 -10 -9 0
-13 5 -10 10 3 6 8 10 10 10 2 0 7 -4 10 -10z m-155 -30 c0 -5 -4 -10 -10 -10
-5 0 -10 5 -10 10 0 6 5 10 10 10 6 0 10 -4 10 -10z m-15 -30 c3 -5 2 -10 -4
-10 -5 0 -13 5 -16 10 -3 6 -2 10 4 10 5 0 13 -4 16 -10z m-115 -24 c0 -3 -4
-8 -10 -11 -5 -3 -10 -1 -10 4 0 6 5 11 10 11 6 0 10 -2 10 -4z m-204 -78
c-10 -6 -20 -7 -24 -3 -9 8 20 25 31 18 5 -3 2 -10 -7 -15z m-899 -111 c-1
-12 -6 -27 -12 -33 -15 -17 -26 6 -14 28 6 10 7 23 4 28 -3 5 1 7 9 4 9 -3 14
-16 13 -27z m458 -27 c3 -5 1 -10 -4 -10 -6 0 -11 5 -11 10 0 6 2 10 4 10 3 0
8 -4 11 -10z m-110 -29 c-8 -14 -35 -14 -35 0 0 5 4 8 9 4 5 -3 13 0 16 6 4 5
9 8 12 5 3 -2 2 -9 -2 -15z m-85 -1 c0 -5 -5 -10 -11 -10 -5 0 -7 5 -4 10 3 6
8 10 11 10 2 0 4 -4 4 -10z m-177 -24 c9 -7 17 -21 17 -30 0 -9 -8 -16 -17
-16 -16 0 -16 2 -3 10 13 9 12 12 -5 26 -19 14 -20 13 -26 -13 l-7 -28 -1 26
c-2 40 12 48 42 25z m162 -6 c-3 -5 -10 -10 -16 -10 -5 0 -9 5 -9 10 0 6 7 10
16 10 8 0 12 -4 9 -10z m-55 -44 c0 -2 -7 -7 -16 -10 -8 -3 -12 -2 -9 4 6 10
25 14 25 6z m-125 -66 c3 -6 -1 -7 -9 -4 -18 7 -21 14 -7 14 6 0 13 -4 16 -10z
m-3048 -95 c0 -8 -4 -15 -9 -15 -4 0 -8 7 -8 15 0 8 4 15 8 15 5 0 9 -7 9 -15z
m23 -35 c0 -5 -4 -10 -10 -10 -5 0 -10 5 -10 10 0 6 5 10 10 10 6 0 10 -4 10
-10z m60 -125 c0 -8 -2 -15 -4 -15 -2 0 -6 7 -10 15 -3 8 -1 15 4 15 6 0 10
-7 10 -15z m4852 -235 c38 -29 52 -72 39 -113 -16 -47 -42 -68 -94 -74 -36 -4
-48 -1 -75 22 -40 33 -50 80 -27 128 9 19 26 39 38 45 36 17 92 14 119 -8z
m-2080 -382 c115 -103 138 -151 103 -217 -27 -53 -71 -81 -126 -81 l-49 0
-132 129 c-85 83 -126 129 -113 128 12 -1 21 5 23 18 5 23 30 44 53 45 9 0 32
11 52 24 35 24 82 36 102 27 6 -2 45 -36 87 -73z m-2572 -38 c0 -5 -4 -10 -10
-10 -5 0 -10 5 -10 10 0 6 5 10 10 10 6 0 10 -4 10 -10z m77 4 c-3 -3 -12 -4
-19 -1 -8 3 -5 6 6 6 11 1 17 -2 13 -5z m4279 -24 c39 -28 41 -32 40 -82 -1
-48 -3 -53 -26 -56 -13 -2 -30 -12 -37 -22 -14 -19 -50 -20 -45 -1 1 6 -6 14
-15 18 -10 4 -22 13 -26 20 -5 7 -12 11 -18 8 -12 -8 -12 11 1 35 7 13 7 21 0
25 -16 10 -12 25 7 25 9 0 14 3 10 6 -5 6 49 51 64 53 3 1 23 -12 45 -29z
m-4381 0 c3 -5 1 -10 -4 -10 -6 0 -11 5 -11 10 0 6 2 10 4 10 3 0 8 -4 11 -10z
m-77 -34 c-7 -8 -15 -12 -17 -11 -5 6 10 25 20 25 5 0 4 -6 -3 -14z m47 4 c-3
-5 -12 -10 -18 -10 -7 0 -6 4 3 10 19 12 23 12 15 0z m38 -2 c3 -10 9 -10 26
0 30 17 40 15 13 -4 -22 -15 -62 -11 -62 7 0 13 18 11 23 -3z m-63 -38 c0 -5
-7 -10 -16 -10 -8 0 -12 5 -9 10 3 6 10 10 16 10 5 0 9 -4 9 -10z m-288 -32
c-9 -9 -15 -9 -24 1 -11 11 -10 13 5 8 10 -4 17 -2 17 5 0 6 3 8 7 5 4 -4 1
-13 -5 -19z m-29 -37 l22 11 -21 -21 c-18 -20 -23 -20 -47 -8 -27 14 -28 30
-1 20 9 -3 14 3 15 18 2 21 3 21 6 -3 4 -25 7 -27 26 -17z m1508 -454 c68
-218 69 -243 21 -295 -57 -61 -165 -59 -206 3 -15 23 -105 323 -147 489 -11
45 -22 89 -25 98 -4 13 -1 16 9 12 11 -4 13 1 10 20 -4 21 -1 26 23 32 16 4
34 10 39 14 6 5 19 10 30 12 11 1 26 11 33 21 7 9 18 14 24 11 7 -4 8 -2 4 4
-4 6 1 23 10 37 l17 26 48 -143 c27 -79 76 -232 110 -341z m-1564 418 c14 -14
13 -15 -11 -11 -24 4 -26 2 -20 -17 6 -22 6 -22 -10 -2 -17 22 -21 39 -7 30 5
-3 12 -1 16 5 8 14 14 13 32 -5z m-90 -51 c-3 -3 -12 -4 -19 -1 -8 3 -5 6 6 6
11 1 17 -2 13 -5z m-167 -98 c0 -3 -4 -8 -10 -11 -5 -3 -10 -1 -10 4 0 6 5 11
10 11 6 0 10 -2 10 -4z m1216 -279 l7 -236 -40 -41 c-35 -34 -47 -40 -84 -40
-54 0 -102 28 -125 72 -15 29 -17 59 -15 228 1 107 3 196 5 197 1 2 16 4 32 6
16 2 43 11 59 19 17 9 39 18 50 20 11 1 23 6 26 10 3 5 17 9 32 10 15 1 27 7
27 13 0 5 5 3 10 -6 5 -9 12 -122 16 -252z m-1421 214 c3 -5 1 -12 -4 -15 -5
-3 -11 1 -15 9 -6 16 9 21 19 6z m-89 -39 c-4 -3 -11 0 -16 8 -15 24 -11 33 6
15 9 -9 13 -19 10 -23z m44 29 c0 -6 -4 -13 -10 -16 -5 -3 -10 1 -10 9 0 9 5
16 10 16 6 0 10 -4 10 -9z m2609 -93 c54 -126 179 -446 185 -476 23 -100 -89
-189 -186 -149 -47 20 -58 38 -106 172 -22 61 -54 148 -72 195 -31 85 -90 251
-90 255 0 10 98 24 126 19 27 -5 34 -3 34 9 0 11 12 17 38 20 20 2 39 4 43 5
3 1 15 -22 28 -50z m-1823 -183 c-3 -8 -69 -126 -147 -263 -353 -613 -320
-567 -404 -567 -63 0 -99 22 -129 79 -27 54 -15 92 80 252 42 71 110 187 151
258 41 72 86 144 99 161 13 18 24 37 24 44 0 8 8 10 23 7 12 -3 16 -3 10 0
-24 11 -13 24 20 24 17 0 39 5 47 10 8 5 64 10 124 10 92 0 107 -2 102 -15z
m2851 -17 c11 -13 28 -48 38 -78 23 -71 27 -76 88 -95 51 -17 97 -54 97 -79 0
-21 -37 -48 -103 -76 -60 -25 -63 -27 -80 -80 -43 -130 -115 -130 -158 -1
l-20 59 -66 24 c-123 43 -134 108 -26 147 84 31 86 32 111 102 34 95 77 123
119 77z m-1375 -525 c32 -29 23 -69 -28 -123 l-47 -50 17 -43 c47 -124 -7
-176 -114 -107 l-50 32 -41 -33 c-56 -44 -113 -47 -130 -6 -10 22 -9 40 3 83
17 61 17 62 -44 104 -49 33 -71 71 -59 103 5 13 18 28 28 32 10 4 86 10 168
12 83 2 157 6 165 7 46 10 115 5 132 -11z m820 -38 c53 -52 39 -138 -27 -169
-45 -22 -66 -20 -106 7 -62 42 -62 138 0 172 43 24 104 19 133 -10z"/>
<path d="M4780 7306 c0 -2 7 -7 16 -10 8 -3 12 -2 9 4 -6 10 -25 14 -25 6z"/>
<path d="M4728 7283 c7 -3 16 -2 19 1 4 3 -2 6 -13 5 -11 0 -14 -3 -6 -6z"/>
<path d="M4860 7270 c0 -5 5 -10 11 -10 5 0 7 5 4 10 -3 6 -8 10 -11 10 -2 0
-4 -4 -4 -10z"/>
<path d="M4900 7249 c0 -5 5 -7 10 -4 6 3 10 8 10 11 0 2 -4 4 -10 4 -5 0 -10
-5 -10 -11z"/>
<path d="M7255 6920 c-27 -11 -122 -45 -210 -76 -120 -42 -167 -64 -187 -85
-50 -53 -31 -137 36 -159 35 -11 53 -6 385 111 116 41 151 71 151 127 0 86
-76 122 -175 82z"/>
<path d="M7142 6513 c-22 -9 -42 -60 -42 -107 0 -109 89 -241 192 -287 110
-48 263 -21 309 55 23 38 24 67 4 106 -22 43 -66 52 -135 27 -93 -34 -143 -3
-180 109 -13 39 -32 72 -47 84 -24 19 -72 25 -101 13z"/>
<path d="M7415 5925 c-258 -92 -285 -113 -254 -203 7 -19 23 -36 46 -47 34
-16 38 -16 92 5 103 40 89 52 161 -137 74 -193 95 -223 160 -223 53 0 90 34
90 83 0 19 -27 105 -60 190 -33 86 -60 162 -60 169 0 8 25 22 56 33 30 10 64
30 75 43 21 27 25 82 9 113 -12 22 -61 49 -87 48 -10 0 -112 -34 -228 -74z"/>
<path d="M7920 5236 c-36 -13 -137 -49 -225 -80 -88 -32 -168 -65 -178 -75
-24 -24 -33 -86 -16 -117 14 -28 57 -54 87 -54 25 0 425 143 456 164 69 44 72
120 7 163 -42 28 -50 28 -131 -1z"/>
<path d="M8481 4824 c0 -11 3 -14 6 -6 3 7 2 16 -1 19 -3 4 -6 -2 -5 -13z"/>
<path d="M8348 4743 c7 -3 16 -2 19 1 4 3 -2 6 -13 5 -11 0 -14 -3 -6 -6z"/>
<path d="M8227 4688 c2 -5 13 -8 24 -8 10 0 19 3 19 8 0 4 -11 7 -24 7 -13 0
-22 -3 -19 -7z"/>
<path d="M8190 4676 c0 -2 8 -10 18 -17 15 -13 16 -12 3 4 -13 16 -21 21 -21
13z"/>
<path d="M8012 4592 c-19 -3 -21 -6 -11 -18 13 -15 34 -20 24 -5 -3 5 3 11 12
13 26 5 2 15 -25 10z"/>
<path d="M7911 4574 c0 -11 3 -14 6 -6 3 7 2 16 -1 19 -3 4 -6 -2 -5 -13z"/>
<path d="M7641 4494 c0 -11 3 -14 6 -6 3 7 2 16 -1 19 -3 4 -6 -2 -5 -13z"/>
<path d="M7725 4500 c-3 -5 -1 -10 4 -10 6 0 11 5 11 10 0 6 -2 10 -4 10 -3 0
-8 -4 -11 -10z"/>
<path d="M7605 4490 c3 -6 1 -10 -5 -10 -6 0 -8 -4 -5 -10 3 -5 -1 -10 -10
-10 -9 0 -13 -4 -10 -10 11 -18 35 -11 35 11 0 11 5 17 10 14 6 -3 10 -2 10 3
0 6 -7 13 -16 16 -8 3 -12 2 -9 -4z"/>
<path d="M7558 4473 c7 -3 16 -2 19 1 4 3 -2 6 -13 5 -11 0 -14 -3 -6 -6z"/>
<path d="M7476 4437 c3 -10 9 -15 12 -12 3 3 0 11 -7 18 -10 9 -11 8 -5 -6z"/>
<path d="M6806 5103 c-6 -14 -5 -15 5 -6 7 7 10 15 7 18 -3 3 -9 -2 -12 -12z"/>
<path d="M6754 4519 c-3 -6 -1 -16 5 -22 8 -8 11 -5 11 11 0 24 -5 28 -16 11z"/>
<path d="M6832 4221 c4 -13 18 -16 19 -4 0 4 -5 9 -11 12 -7 2 -11 -2 -8 -8z"/>
<path d="M6800 4213 c0 -4 5 -15 10 -23 8 -13 10 -13 10 2 0 9 -4 20 -10 23
-5 3 -10 3 -10 -2z"/>
<path d="M3066 6478 c3 -4 9 -8 15 -8 5 0 9 4 9 8 0 5 -7 9 -15 9 -8 0 -12 -4
-9 -9z"/>
<path d="M5380 5781 c-56 -18 -108 -52 -135 -87 -35 -45 -65 -123 -65 -167 0
-57 30 -137 65 -175 30 -33 38 -37 85 -37 44 0 55 4 76 28 19 22 24 40 24 81
0 39 5 57 18 69 27 25 59 21 79 -9 61 -90 114 -108 172 -58 93 78 27 263 -121
340 -37 19 -158 28 -198 15z"/>
<path d="M4320 5441 c-132 -28 -220 -136 -220 -270 0 -78 19 -130 66 -178 35
-37 46 -43 82 -43 29 0 49 7 72 26 29 25 31 31 29 87 -2 49 1 62 16 73 36 26
62 17 96 -33 41 -60 45 -63 95 -63 32 0 46 6 70 31 26 27 29 37 28 92 -1 174
-168 313 -334 278z"/>
<path d="M5525 5040 c-186 -69 -707 -255 -970 -347 -55 -19 -106 -40 -112 -45
-57 -46 69 -219 232 -317 63 -38 166 -78 240 -92 75 -15 232 -12 300 6 204 52
382 205 459 393 38 95 50 161 51 279 0 104 -2 113 -24 137 -32 34 -54 32 -176
-14z"/>
<path d="M3565 4130 c-3 -5 -1 -10 4 -10 6 0 11 5 11 10 0 6 -2 10 -4 10 -3 0
-8 -4 -11 -10z"/>
<path d="M4120 3268 c0 -9 5 -20 10 -23 13 -8 13 5 0 25 -8 13 -10 13 -10 -2z"/>
<path d="M2218 5356 c-101 -29 -189 -103 -232 -195 -31 -67 -30 -216 1 -284
33 -70 113 -149 186 -183 53 -25 74 -29 147 -29 72 1 94 5 142 28 69 34 131
94 166 162 21 40 27 68 30 142 4 87 3 95 -28 162 -38 82 -105 151 -178 183
-58 26 -169 33 -234 14z m132 -166 c19 -12 15 -15 -51 -34 -63 -18 -96 -46
-125 -105 -10 -22 -25 -43 -31 -45 -28 -11 -2 97 34 136 39 44 136 72 173 48z"/>
<path d="M2453 4474 c-22 -22 -25 -32 -21 -77 9 -102 65 -177 130 -177 37 0
85 35 92 67 10 46 -28 157 -65 187 -42 36 -100 36 -136 0z"/>
<path d="M2619 4041 c-42 -43 -38 -78 30 -248 60 -153 175 -446 230 -589 39
-100 69 -134 121 -134 78 0 112 78 74 168 -8 20 -39 100 -69 177 -29 77 -86
226 -127 330 -41 105 -82 211 -92 237 -33 89 -110 116 -167 59z"/>
<path d="M3415 2989 c-4 -6 -4 -13 0 -17 4 -4 10 -1 12 6 3 6 10 9 15 6 7 -4
8 -2 4 4 -9 15 -23 15 -31 1z"/>
<path d="M3250 2940 c0 -5 5 -10 11 -10 5 0 7 5 4 10 -3 6 -8 10 -11 10 -2 0
-4 -4 -4 -10z"/>
<path d="M3300 2920 c0 -5 5 -10 10 -10 6 0 10 5 10 10 0 6 -4 10 -10 10 -5 0
-10 -4 -10 -10z"/>
<path d="M3140 2880 c0 -5 5 -10 11 -10 5 0 7 5 4 10 -3 6 -8 10 -11 10 -2 0
-4 -4 -4 -10z"/>
<path d="M3215 2880 c-3 -5 -1 -10 4 -10 6 0 11 5 11 10 0 6 -2 10 -4 10 -3 0
-8 -4 -11 -10z"/>
<path d="M3240 2868 c0 -17 2 -18 15 -4 8 8 15 16 15 19 0 2 -7 4 -15 4 -8 0
-15 -9 -15 -19z"/>
<path d="M3090 2854 c44 -15 45 -17 20 -24 l-25 -8 26 -1 c18 -1 28 5 31 17 4
14 -2 17 -31 19 -20 1 -29 -1 -21 -3z"/>
<path d="M3010 2811 c0 -5 6 -11 13 -14 8 -3 14 1 14 9 0 8 -6 14 -14 14 -7 0
-13 -4 -13 -9z"/>
<path d="M3050 2811 c0 -6 4 -13 10 -16 6 -3 7 1 4 9 -7 18 -14 21 -14 7z"/>
<path d="M2907 2769 c7 -7 15 -10 18 -7 3 3 -2 9 -12 12 -14 6 -15 5 -6 -5z"/>
<path d="M2780 2716 c0 -2 7 -7 16 -10 8 -3 12 -2 9 4 -6 10 -25 14 -25 6z"/>
<path d="M4241 2694 c0 -11 3 -14 6 -6 3 7 2 16 -1 19 -3 4 -6 -2 -5 -13z"/>
<path d="M5538 2673 c7 -3 16 -2 19 1 4 3 -2 6 -13 5 -11 0 -14 -3 -6 -6z"/>
<path d="M5381 2624 c0 -11 3 -14 6 -6 3 7 2 16 -1 19 -3 4 -6 -2 -5 -13z"/>
<path d="M3675 2450 c3 -5 8 -10 11 -10 2 0 4 5 4 10 0 6 -5 10 -11 10 -5 0
-7 -4 -4 -10z"/>
</g>
</svg>
